<svg xmlns="http://www.w3.org/2000/svg" width="420" height="140" viewBox="0 0 420 140">
  <rect width="420" height="140" fill="none"/>
  <g fill="#ffffff">
    <!-- F -->
    <rect x="28" y="28" width="18" height="84"/>
    <rect x="46" y="28" width="50" height="18"/>
    <rect x="46" y="64" width="42" height="18"/>
    <!-- L -->
    <rect x="110" y="28" width="18" height="84"/>
    <rect x="128" y="94" width="50" height="18"/>
    <!-- A -->
    <rect x="196" y="46" width="18" height="66"/>
    <rect x="232" y="46" width="18" height="66"/>
    <rect x="214" y="28" width="18" height="18"/>
    <rect x="214" y="76" width="18" height="18"/>
    <!-- P -->
    <rect x="270" y="28" width="18" height="84"/>
    <rect x="288" y="28" width="42" height="18"/>
    <rect x="330" y="46" width="18" height="18"/>
    <rect x="288" y="64" width="42" height="18"/>
    <!-- ! -->
    <rect x="372" y="28" width="18" height="66"/>
    <rect x="372" y="102" width="18" height="18"/>
  </g>
</svg>